<svg width="52" height="54" viewBox="0 0 52 54" fill="none" xmlns="http://www.w3.org/2000/svg" xmlns:xlink="http://www.w3.org/1999/xlink">
<path d="M24.66,51.82C23.353,51.265 22.896,50.187 22.896,47.671L22.896,45.351L20.903,44.795C14.074,42.9 8.65,37.444 7.147,30.877L6.788,29.308L4.207,29.178C1.822,29.079 1.527,28.981 0.809,28.165C-0.27,26.923 -0.27,25.028 0.809,23.786C1.527,22.97 1.822,22.872 4.207,22.773L6.788,22.643L7.147,21.074C8.65,14.507 14.074,9.051 20.903,7.156L22.896,6.6L22.896,4.215C22.896,2.156 22.994,1.699 23.68,0.915C24.334,0.163 24.726,0 26,0C27.274,0 27.666,0.163 28.32,0.915C29.006,1.699 29.104,2.156 29.104,4.215L29.104,6.6L31.097,7.156C35.573,8.397 39.462,11.109 41.977,14.768C43.382,16.827 45.081,20.846 45.114,22.087C45.114,22.545 45.571,22.675 47.761,22.773C50.178,22.872 50.473,22.97 51.191,23.786C52.27,25.028 52.27,26.923 51.191,28.165C50.473,28.981 50.178,29.079 47.793,29.178L45.212,29.308L44.853,30.877C43.35,37.444 37.926,42.9 31.097,44.795L29.104,45.351L29.104,47.736C29.104,49.729 28.973,50.252 28.385,50.971C27.568,51.886 25.804,52.278 24.66,51.82ZM31.489,37.836C36.815,35.32 39.919,29.537 38.939,23.95C38.187,19.571 35.475,16.01 31.456,14.115C29.463,13.167 29.006,13.069 26,13.069C22.994,13.069 22.537,13.167 20.544,14.115C12.277,18.036 10.317,28.785 16.721,35.157C19.465,37.934 22.439,39.078 26.49,38.947C28.81,38.882 29.659,38.686 31.489,37.836Z" fill="#000000"/>
<path d="M23.876,33.85C16.786,31.53 15.871,22.153 22.406,18.689C24.236,17.709 27.764,17.709 29.594,18.689C35.377,21.761 35.443,30.256 29.659,33.229C28.222,33.948 25.183,34.275 23.876,33.85Z" fill="#000000"/>
</svg>
