<svg width="34" height="32" viewBox="0 0 34 32" fill="none" xmlns="http://www.w3.org/2000/svg" xmlns:xlink="http://www.w3.org/1999/xlink">
<path d="M14.836,7.741C13.161,7.158 12.111,5.691 12.111,3.963C12.111,2.074 13.262,0.627 15.179,0.125C17.58,-0.518 19.981,1.411 19.981,3.963C19.981,6.656 17.318,8.605 14.836,7.741Z" fill="#00A77F"/>
<path d="M12.818,26.875C11.809,26.533 10.88,25.71 10.477,24.825C10.174,24.182 10.093,23.519 10.093,21.67C10.093,19.037 10.275,18.595 11.526,18.173L12.212,17.932L12.535,14.817C12.737,13.089 12.939,11.501 13.019,11.24C13.282,10.436 14.271,10.034 16.046,10.034C17.822,10.034 18.811,10.436 19.073,11.24C19.154,11.501 19.356,13.089 19.558,14.817L19.881,17.932L20.567,18.173C21.818,18.595 21.999,19.037 21.999,21.67C21.999,23.519 21.919,24.182 21.616,24.825C21.192,25.73 20.264,26.533 19.194,26.895C18.347,27.177 13.645,27.156 12.818,26.875Z" fill="#00A77F"/>
<path d="M5.513,31.599C3.898,31.177 1.759,30.193 1.053,29.529C-0.037,28.525 -0.319,26.997 0.387,25.852C1.901,23.38 7.813,21.873 16.046,21.873C21.515,21.873 25.692,22.476 28.699,23.701C30.313,24.345 30.818,24.706 31.504,25.651C32.432,26.897 32.251,28.424 31.04,29.529C30.313,30.213 28.195,31.177 26.499,31.62C23.876,32.283 22.928,32.102 22.685,30.896C22.504,29.891 23.049,29.449 25.208,28.886C29.143,27.841 29.708,27.259 27.569,26.415C22.04,24.224 10.053,24.224 4.524,26.415C2.385,27.259 2.95,27.841 6.885,28.886C9.044,29.449 9.589,29.891 9.407,30.896C9.165,32.082 8.116,32.283 5.513,31.599Z" fill="#00A77F"/>
</svg>
